<?xml version="1.0" standalone="no"?><!DOCTYPE svg PUBLIC "-//W3C//DTD SVG 1.1//EN" "http://www.w3.org/Graphics/SVG/1.1/DTD/svg11.dtd"><svg t="1680773645700" class="icon" viewBox="0 0 1024 1024" version="1.1" xmlns="http://www.w3.org/2000/svg" p-id="1267" xmlns:xlink="http://www.w3.org/1999/xlink" width="200" height="200"><path d="M512 512m-414 0a414 414 0 1 0 828 0 414 414 0 1 0-828 0Z" fill="#F0C48A" p-id="1268"></path><path d="M317.394 231.404h147.082v301.49h-147.082z" fill="#D3E6F8" p-id="1269"></path><path d="M429.854 231.56h34.622v301.336h-34.622z" fill="#A4CFF2" p-id="1270"></path><path d="M464.476 486.654c-25.538 0-46.244 20.702-46.244 46.244h46.244v-46.244z" fill="#E8677D" p-id="1271"></path><path d="M363.638 532.896c0-25.538-20.704-46.244-46.244-46.244v46.244h46.244z" fill="#FD919E" p-id="1272"></path><path d="M418.234 231.406c0 25.538 20.704 46.244 46.244 46.244v-46.244h-46.244z" fill="#E8677D" p-id="1273"></path><path d="M363.638 231.406h-46.244v46.244c25.54-0.002 46.244-20.706 46.244-46.244z" fill="#FD919E" p-id="1274"></path><path d="M464.476 542.302h-46.244a9.408 9.408 0 0 1-9.406-9.406c0-30.684 24.964-55.648 55.65-55.648a9.408 9.408 0 0 1 9.406 9.406v46.242a9.406 9.406 0 0 1-9.406 9.406z m-35.618-18.812h26.212v-26.212a36.966 36.966 0 0 0-26.212 26.212zM363.638 542.302h-46.244a9.408 9.408 0 0 1-9.406-9.406v-46.242a9.408 9.408 0 0 1 9.406-9.406c30.686 0 55.65 24.964 55.65 55.648a9.408 9.408 0 0 1-9.406 9.406z m-36.838-18.812h26.214a36.968 36.968 0 0 0-26.214-26.212v26.212zM464.476 287.056c-30.684 0-55.65-24.966-55.65-55.65a9.408 9.408 0 0 1 9.406-9.406h46.244a9.408 9.408 0 0 1 9.406 9.406v46.244a9.408 9.408 0 0 1-9.406 9.406z m-35.618-46.244a36.976 36.976 0 0 0 26.212 26.214v-26.214h-26.212zM317.394 287.056a9.408 9.408 0 0 1-9.406-9.406v-46.244a9.408 9.408 0 0 1 9.406-9.406h46.244a9.408 9.408 0 0 1 9.406 9.406c0 30.684-24.964 55.65-55.65 55.65z m9.406-46.244v26.214a36.974 36.974 0 0 0 26.214-26.214H326.8z" fill="#4C4372" p-id="1275"></path><path d="M464.476 542.302h-147.082a9.408 9.408 0 0 1-9.406-9.406V231.406a9.408 9.408 0 0 1 9.406-9.406h147.082a9.408 9.408 0 0 1 9.406 9.406v301.49a9.406 9.406 0 0 1-9.406 9.406z m-137.676-18.812h128.27V240.812H326.8v282.678z" fill="#4C4372" p-id="1276"></path><path d="M340.524 382.152a50.42 50.42 0 1 0 100.84 0 50.42 50.42 0 1 0-100.84 0Z" fill="#FD919E" p-id="1277"></path><path d="M390.936 441.976c-32.986 0-59.826-26.836-59.826-59.824s26.838-59.826 59.826-59.826 59.826 26.836 59.826 59.826c0 32.986-26.838 59.824-59.826 59.824z m0-100.838c-22.616 0-41.014 18.398-41.014 41.014 0 22.616 18.398 41.012 41.014 41.012s41.014-18.396 41.014-41.012c-0.002-22.616-18.4-41.014-41.014-41.014z" fill="#4C4372" p-id="1278"></path><path d="M383.512 399.308c4.654 0 8.758-2.512 11.086-6.186a11.528 11.528 0 0 0 6.982 2.328 11.632 11.632 0 0 0 10.858-7.448c0.092 0.01 0.184 0.014 0.28 0.014h6.43a2.988 2.988 0 0 0 0-5.976h-5.928v-1.358h5.928a2.988 2.988 0 0 0 0-5.976h-5.93v-5.16a2.988 2.988 0 0 0-5.976 0v2.198h-31.138v-2.198a2.988 2.988 0 0 0-5.976 0v5.16h-4.714a2.988 2.988 0 0 0 0 5.976h4.928v1.358h-4.928a2.988 2.988 0 0 0 0 5.976h5.056a13.148 13.148 0 0 0 13.042 11.292z m22.908-20.764v5.268a4.812 4.812 0 0 1-4.84 4.84c-2.694 0-4.962-2.144-4.962-4.84v-5.268h9.802z m-29.278 7.656v-7.656h12.68v7.656c-0.062 3.492-2.818 6.308-6.308 6.308-3.554 0.002-6.31-2.816-6.372-6.308z" fill="#4C4372" p-id="1279"></path><path d="M505.902 315.304a62.886 62.886 0 1 0 125.772 0 62.886 62.886 0 1 0-125.772 0Z" fill="#E8677D" p-id="1280"></path><path d="M505.89 315.272c0 17.77 7.372 33.814 19.222 45.252a62.73 62.73 0 0 0 22.73 4.238c34.732 0 62.888-28.156 62.888-62.888 0-17.77-7.372-33.814-19.222-45.252a62.73 62.73 0 0 0-22.73-4.238c-34.732 0-62.888 28.156-62.888 62.888z" fill="#FD919E" p-id="1281"></path><path d="M568.778 387.592c-39.876 0-72.318-32.442-72.318-72.318 0-39.878 32.442-72.32 72.318-72.32s72.32 32.442 72.32 72.32c0 39.874-32.444 72.318-72.32 72.318z m0-125.826c-29.504 0-53.506 24.004-53.506 53.508 0 29.502 24.002 53.506 53.506 53.506s53.508-24.004 53.508-53.506c0-29.504-24.004-53.508-53.508-53.508z" fill="#4C4372" p-id="1282"></path><path d="M592.386 328.206c0-6.638-3.58-12.488-8.82-15.806a16.44 16.44 0 0 0 3.318-9.954 16.586 16.586 0 0 0-10.618-15.48c0.012-0.132 0.02-0.264 0.02-0.398V277.4a4.26 4.26 0 1 0-8.52 0v8.452h-1.936V277.4a4.26 4.26 0 0 0-8.52 0v8.456h-7.358a4.26 4.26 0 1 0 0 8.52h3.134v44.392h-3.134a4.26 4.26 0 1 0 0 8.52h7.358v6.722a4.26 4.26 0 1 0 8.52 0v-7.024h1.936v7.024a4.26 4.26 0 1 0 8.52 0v-7.208c9.084-1.268 16.1-9.09 16.1-18.596z m-29.602-32.66h7.51a6.86 6.86 0 0 1 6.9 6.9c0 3.842-3.056 7.074-6.9 7.074h-7.51v-13.974z m10.914 41.742h-10.916v-18.076h10.916c4.978 0.088 8.994 4.016 8.994 8.996 0.002 5.064-4.016 8.994-8.994 9.08z" fill="#4C4372" p-id="1283"></path><path d="M595.072 455.422a62.888 62.888 0 1 0 125.776 0 62.888 62.888 0 1 0-125.776 0Z" fill="#E8677D" p-id="1284"></path><path d="M595.078 455.422c0 17.77 7.372 33.814 19.222 45.252a62.73 62.73 0 0 0 22.73 4.238c34.732 0 62.888-28.156 62.888-62.888 0-17.77-7.372-33.814-19.222-45.252a62.73 62.73 0 0 0-22.73-4.238c-34.734 0-62.888 28.156-62.888 62.888z" fill="#FD919E" p-id="1285"></path><path d="M657.966 527.74c-39.876 0-72.318-32.442-72.318-72.32 0-39.876 32.442-72.318 72.318-72.318s72.318 32.442 72.318 72.318c0 39.88-32.442 72.32-72.318 72.32z m0-125.824c-29.504 0-53.506 24.002-53.506 53.506s24.002 53.508 53.506 53.508 53.506-24.004 53.506-53.508-24.002-53.506-53.506-53.506z" fill="#4C4372" p-id="1286"></path><path d="M681.574 468.358c0-6.638-3.58-12.488-8.82-15.806a16.44 16.44 0 0 0 3.318-9.954 16.586 16.586 0 0 0-10.618-15.48c0.012-0.132 0.02-0.264 0.02-0.398v-9.166a4.26 4.26 0 0 0-8.52 0v8.452h-1.936v-8.452a4.26 4.26 0 1 0-8.52 0v8.456h-7.358a4.26 4.26 0 0 0 0 8.52h3.134v44.392h-3.134a4.26 4.26 0 0 0 0 8.52h7.358v6.722a4.26 4.26 0 0 0 8.52 0v-7.024h1.936v7.024a4.26 4.26 0 1 0 8.52 0v-7.208c9.084-1.272 16.1-9.094 16.1-18.598z m-29.604-32.662h7.51a6.86 6.86 0 0 1 6.9 6.9c0 3.842-3.058 7.074-6.9 7.074h-7.51v-13.974z m10.916 41.742h-10.916v-18.076h10.916c4.978 0.088 8.996 4.016 8.996 8.996 0 5.064-4.018 8.994-8.996 9.08z" fill="#4C4372" p-id="1287"></path><path d="M272.894 460.462H436.4v332.132h-163.506z" fill="#D3E6F8" p-id="1288"></path><path d="M436.4 460.462h314.704v332.132H436.4z" fill="#A4CFF2" p-id="1289"></path><path d="M751.106 802H436.4a9.408 9.408 0 0 1-9.406-9.406V460.462a9.408 9.408 0 0 1 9.406-9.406h314.704a9.408 9.408 0 0 1 9.406 9.406v332.132a9.402 9.402 0 0 1-9.404 9.406z m-305.3-18.812H741.7v-313.32H445.806v313.32z" fill="#4C4372" p-id="1290"></path><path d="M436.4 802h-163.506a9.408 9.408 0 0 1-9.406-9.406V460.462a9.408 9.408 0 0 1 9.406-9.406H436.4a9.408 9.408 0 0 1 9.406 9.406v332.132A9.406 9.406 0 0 1 436.4 802z m-154.1-18.812h144.694v-313.32H282.3v313.32z" fill="#4C4372" p-id="1291"></path><path d="M836.19 575.63H521.486L436.4 460.462h314.706z" fill="#7BABF1" p-id="1292"></path><path d="M351.316 575.63H187.81l85.084-115.168H436.4z" fill="#A4CFF2" p-id="1293"></path><path d="M836.19 585.036H521.486a9.406 9.406 0 0 1-7.566-3.818l-85.086-115.168a9.404 9.404 0 0 1 7.566-14.996h314.704c2.984 0 5.792 1.416 7.566 3.818l85.086 115.168a9.404 9.404 0 0 1-7.566 14.996z m-309.958-18.812h291.316l-71.186-96.356H455.044l71.188 96.356z" fill="#4C4372" p-id="1294"></path><path d="M351.314 585.036H187.81a9.404 9.404 0 0 1-7.566-14.996l85.086-115.168a9.408 9.408 0 0 1 7.566-3.818H436.4a9.404 9.404 0 0 1 7.566 14.996l-85.086 115.168a9.406 9.406 0 0 1-7.566 3.818z m-144.86-18.812h140.116l71.188-96.356h-140.116l-71.188 96.356zM543.046 657.946h-55.678a9.408 9.408 0 0 1 0-18.812h55.678a9.408 9.408 0 0 1 0 18.812zM543.046 713.626h-55.678a9.408 9.408 0 0 1 0-18.812h55.678a9.408 9.408 0 0 1 0 18.812zM624.616 713.626h-55.678a9.408 9.408 0 0 1-9.406-9.406v-55.68a9.408 9.408 0 0 1 9.406-9.406h55.678a9.408 9.408 0 0 1 0 18.812h-46.272v36.868h46.272a9.408 9.408 0 0 1 0 18.812zM706.188 713.626h-55.678a9.408 9.408 0 0 1-9.406-9.406v-55.68a9.408 9.408 0 0 1 9.406-9.406h55.678a9.408 9.408 0 0 1 9.406 9.406v55.68a9.408 9.408 0 0 1-9.406 9.406z m-46.274-18.812h36.866v-36.868h-36.866v36.868z" fill="#4C4372" p-id="1295"></path><path d="M515.208 713.626a9.408 9.408 0 0 1-9.406-9.406v-55.68a9.408 9.408 0 0 1 18.812 0v55.68a9.408 9.408 0 0 1-9.406 9.406z" fill="#4C4372" p-id="1296"></path></svg>